<svg width="400" height="400" viewBox="0 0 400 400" fill="none" xmlns="http://www.w3.org/2000/svg">
  <!-- Background -->
  <rect width="400" height="400" fill="#F58220"/>
  
  <!-- Dabba/Tiffin Container -->
  <g transform="translate(50, 50)">
    <!-- Main Container -->
    <rect x="0" y="0" width="300" height="300" rx="20" fill="#2C2C2C" stroke="#FFD166" stroke-width="4"/>
    
    <!-- Compartments -->
    <rect x="20" y="20" width="260" height="80" rx="10" fill="#FFD166"/>
    <rect x="20" y="110" width="260" height="80" rx="10" fill="#FAFAFA"/>
    <rect x="20" y="200" width="260" height="80" rx="10" fill="#FFD166"/>
    
    <!-- Food Items -->
    <!-- Rotis -->
    <circle cx="80" cy="60" r="25" fill="#D4A574" stroke="#B8956A" stroke-width="2"/>
    <circle cx="120" cy="60" r="25" fill="#D4A574" stroke="#B8956A" stroke-width="2"/>
    <circle cx="160" cy="60" r="25" fill="#D4A574" stroke="#B8956A" stroke-width="2"/>
    
    <!-- Dal -->
    <ellipse cx="150" cy="150" rx="40" ry="25" fill="#8B4513"/>
    <ellipse cx="150" cy="150" rx="35" ry="20" fill="#A0522D"/>
    
    <!-- Rice -->
    <rect x="50" y="230" width="200" height="30" rx="15" fill="#F5F5DC"/>
    <rect x="60" y="235" width="180" height="20" rx="10" fill="#FFF8DC"/>
    
    <!-- Decorative Elements -->
    <circle cx="280" cy="40" r="8" fill="#FFD166"/>
    <circle cx="40" cy="280" r="6" fill="#FAFAFA"/>
  </g>
  
  <!-- Spices/Herbs -->
  <circle cx="100" cy="100" r="3" fill="#228B22"/>
  <circle cx="320" cy="150" r="3" fill="#DC143C"/>
  <circle cx="80" cy="320" r="3" fill="#FFD700"/>
  <circle cx="300" cy="300" r="3" fill="#8B0000"/>
</svg>
